<?xml version="1.0" encoding="UTF-8"?><svg id="Layer_2" xmlns="http://www.w3.org/2000/svg" viewBox="0 0 821.86 821.86"><g id="Layer_1-2"><path d="M354.12,496.78c-1.24-2.16-2.72-5.61-5.66-5.74-1.57-.04-2.97.51-4.42,1.07-1.44.55-2.89,1.15-4.21,2-2.97,1.95.22,4.97,2.21,6.2,3.19,2,8.89,4.3,12.54,2.3.22-.13.39-.26.6-.39,1.57-1.19-.38-4.16-1.06-5.44ZM354.12,496.78c-1.24-2.16-2.72-5.61-5.66-5.74-1.57-.04-2.97.51-4.42,1.07-1.44.55-2.89,1.15-4.21,2-2.97,1.95.22,4.97,2.21,6.2,3.19,2,8.89,4.3,12.54,2.3.22-.13.39-.26.6-.39,1.57-1.19-.38-4.16-1.06-5.44ZM354.12,496.78c-1.24-2.16-2.72-5.61-5.66-5.74-1.57-.04-2.97.51-4.42,1.07-1.44.55-2.89,1.15-4.21,2-2.97,1.95.22,4.97,2.21,6.2,3.19,2,8.89,4.3,12.54,2.3.22-.13.39-.26.6-.39,1.57-1.19-.38-4.16-1.06-5.44ZM354.12,496.78c-1.24-2.16-2.72-5.61-5.66-5.74-1.57-.04-2.97.51-4.42,1.07-1.44.55-2.89,1.15-4.21,2-2.97,1.95.22,4.97,2.21,6.2,3.19,2,8.89,4.3,12.54,2.3.22-.13.39-.26.6-.39,1.57-1.19-.38-4.16-1.06-5.44ZM410.93,0C183.98,0,0,183.98,0,410.93s183.98,410.93,410.93,410.93,410.93-183.98,410.93-410.93S637.88,0,410.93,0ZM109.43,634.47c5.14-13.17,11.95-25.55,21.47-36.43,16.62-19,37.11-30.78,62.65-33.11,9.06-.81,18.16-1.32,27.21-2.55,8.5-1.19,13.69-6.08,17.13-13.44,3.02-6.37,4.77-13.17,6.51-19.93,2.68-10.38,5.4-20.71,9.43-30.65,5.7-11.69,12.72-22.45,23.21-30.57,5.45-4.16,10.89-8.42,16.33-12.62,7.95-6.17,15.47-12.93,24.23-18.03,2.13-1.23,4.04-2.08,4.89,1.4.55,2.05,1.66,2.09,3.1.68,2-2.04,3.7-4.37,6.17-5.86,1.01-.6,2.16-1.4,3.35-.38,1.07.85.43,1.99.22,3.01-1.07,5.32-3.66,10.12-4.47,15.52-.63,4.25-.29,6.38,3.91,7.14,9.4,1.66,16.58,6.93,22.71,13.73,3.31,3.7,7.26,6.8,8.71,12.16,2.42,9.1,5.01,18.19,12.67,24.87,4.03,3.57,3.7,9.14.17,13.52-.51.59-.81,1.27-.81,2.04.13,3.31-1.66,5.57-4.12,7.48-.73.59-1.7,1.1-1.24,2.34-.93,4.59-3.65,7.44-8.07,8.71-5.45,1.53-10.84,3.06-16.29,4.64-2.12.59-3.86,1.53-5.22,2.8l-.09.13c-1.66,1.53-2.68,3.65-3.14,6.29-1.49,8.88-1.66,17.68,1.31,26.31.05.09.09.17.13.26.13.47.3.93.47,1.4,1.95,5.02,3.99,10.03,5.18,15.35,1.41,6.25,2.43,12.37.56,19-2.55,9.14-6.51,17.34-7.23,26.91l-.04.76c-.51,8.25.46,16.5,1.27,24.7v.26c.22,1.78.39,3.53.47,5.27.81,9.73,2.81,19.85,2.81,29.54l1.02,8.67c.34,2.56.89,5.23,1.57,7.91,1.4,5.4,3.19,10.76,5.27,16.11.68,1.75,1.4,3.57,2.17,5.4.38.89.81,1.83,1.19,2.72,4.21,10.03,9.31,19.98,16.11,28.36,0,0,.04.08.09.08,1.18,1.49,2.46,2.93,3.78,4.34,3.02,3.14,5.99,4.55,9.22,5.1-113.11-7.61-212.42-65.42-275.97-151.34ZM477.4,780.8c1.11-1.76,1.75-3.95,2.05-6.59.75-7.93-1.88-16.21-6.96-22.66-.04-.04-.08-.09-.13-.15-.33-.44-.68-.86-1.06-1.29-.73-.84-1.53-1.65-2.34-2.43-3.55-3.24-7.86-5.87-10.8-5.51-5.64.06-11.62.37-17.59.52-3.01.06-6.02.15-9.24.04-.83-.04-1.63-.04-2.55-.12-.87-.09-1.79-.17-3.13-.44-1.59-.32-3.22-1.13-4.18-1.8-.85-.56-1.54-1.13-2.15-1.69-.17-.13-.31-.27-.46-.4-.4-.37-.79-.77-1.15-1.15-.65-.69-1.27-1.38-1.84-2.07-1.37-1.69-2.5-3.4-3.59-5.16-1.75-2.88-3.22-5.87-4.43-8.96-.6-1.52-1.15-3.09-1.63-5.01-.42-1.72-.75-3.37-.96-4.93-.52-3.2-.79-6.25-1.04-9.3-.46-6.1-.71-12.1-.82-18.09-.25-11.97-.04-23.88.31-35.77.57-18.09,1.55-36.12,2.87-54.15,5.87-17.67,15.37-20.7,26.34-44.62,9.36-16.8,14.25-32.7,17.07-47.43,6.41-33.38,1.09-102.32,2.86-128.98,1.78-26.66,23.8-57.58,27.7-58.29,1.42-.25,10.33.04,22.34.17.08-.02.16-.02.25,0,20.79.25,50.72-.09,67.33-4.79,26.3-7.45,33.41-28.07,35.54-43.35,2.13-15.29,1.42-46.92.71-56.15-.63-8.13-.71-13.25-8.48-14.82-1.11-.22-2.34-.39-3.76-.48-.13,0-.25-.02-.4-.02-12.66-.64-69.8-.31-69.8-.31-9.63-19.58-15.48-34.49-49.18-37.48-4.93-.44-10.46-.63-16.69-.54-.88.02-1.73.02-2.57.04-1.34.02-2.65.04-3.99.06-.71.02-1.42.02-2.11.04-13.31.25-28.64-.58-41.64,3.91-.12.04-.25.08-.37.13-.44.14-.9.31-1.34.48-.9.35-1.78.73-2.63,1.12-1.51.69-2.95,1.47-4.33,2.3-.23.15-.48.3-.73.46-3.09,1.92-5.91,4.18-8.5,6.69-.06.04-.13.08-.17.14-3.59,3.45-6.75,7.36-9.59,11.51-3.72,5.44-6.93,11.27-9.88,17.03-7.35,14.37-14.31,28.96-20.58,43.85-2.86,6.83-5.64,13.71-8.15,20.69-3.34,9.31-6.49,18.9-9.08,28.66-.09.27-.17.56-.23.86-5.52,21.01-8.36,42.76-4.89,64.2,1.17,7.2,3.26,14.2,6.52,20.32,1.65,3.03,3.55,5.89,5.89,8.23.29.3.56.59.85.88.57.54,1.15,1.07,1.74,1.57.02.02.04.04.08.06.59.46,1.19.92,1.8,1.34.12.08.25.17.4.27.52.33,1.06.65,1.6.94.4.21.8.4,1.19.58.36.21.72.38,1.07.55,1.13.5,2.34.81,3.51,1.25,1.65.29,3.05.73,5.06.94,3.76.54,7.5,1.03,11.24,1.36,7.45.65,14.93.98,22.08.23,7.12-.79,13.93-2.68,19.36-6.37,5.41-3.7,9.3-9.24,11.79-15.71,4.82-13.16,4.72-28.6,4.34-43.79-.42-15.27-1.75-31.09.44-47.18,1.8-15.79,8.36-29.24,14.35-37.47,1.55-2.05,2.95-3.91,4.29-5.44,1.42-1.46,2.67-2.67,3.76-3.63,1.77-1.53,3.07-2.34,3.8-2.34.06,0,.1,0,.15.02.1,0,.2.04.27.1,2.8,2.09-12.81,21.46-16.05,50.16-2.02,14.61-.81,29.86-.35,45.44.21,7.82.33,15.74-.25,23.72-.71,8.02-1.67,16.23-4.79,24.21-3.01,7.94-8.29,15.69-15.75,20.72-7.44,5.04-16.02,7.23-24.21,8.15-8.23.88-16.3.48-24.22-.21-3.97-.35-7.87-.85-11.78-1.42-1.84-.19-4.2-.75-6.35-1.21-2.11-.73-4.3-1.32-6.31-2.42-.02-.02-.06-.02-.08-.05-.53-.22-1.03-.48-1.53-.75-.96-.52-1.9-1.08-2.82-1.71-.46-.29-.94-.61-1.38-.96-1.82-1.34-3.49-2.84-4.99-4.45-3.13-3.16-5.56-6.81-7.58-10.55-4.02-7.54-6.33-15.59-7.65-23.61-1.96-11.93-2.07-23.86-.96-35.64.02-.25.02-.5-.02-.73-.34-2.42-3.53-3.51-5.25-1.44-21.41,25.86-52.81,57.91-80.16,86.18-41.93,43.35-103.77,89.18-142.14,124.01-7.88,7.16-15.5,15.85-22.55,25.65-14.87-34.93-24.56-72.6-28.18-112.02v-.04c-.19-2.12-.37-4.25-.53-6.38-.09-1.06-.16-2.13-.23-3.2-.07-1.07-.13-2.14-.19-3.22-.08-1.43-.16-2.87-.22-4.3v-.02c-.27-5.76-.4-11.56-.4-17.37,0-8.62.29-17.18.87-25.65.08-1.21.17-2.42.26-3.63h0c.13-1.63.26-3.23.41-4.83.15-1.6.3-3.2.47-4.79C57.75,184.47,217.15,37.35,410.94,37.35c206.91,0,374.65,167.74,374.65,374.67,0,184.22-132.97,337.4-308.19,368.78ZM471.32,202.43c.33-.96,1.07-1.86,2.32-2.71.21-.15.42-.27.6-.4,2.82-1.88,5.77-3.3,8.74-3.93,2.65-.56,5.24-.48,7.73.44,1.94.71,3.78,1.92,5.51,3.78.63.69,1.32,1.47,2.01,2.3.1.08.19.21.29.31.82,1.07,1.88,2.55,2.74,4.16,1.88,3.41,2.84,7.4-1.09,9.36-2.57,1.3-5.45,1.13-8.15.57-3.28-.71-6.56-1.8-9.65-3.16-1.59-.71-3.13-1.48-4.62-2.34-.98-.58-1.92-1.15-2.75-1.77-.94-.71-1.78-1.45-2.41-2.2-.06-.08-.12-.14-.18-.23-1.11-1.38-1.59-2.8-1.09-4.18ZM342.04,500.31c3.19,2,8.89,4.3,12.54,2.3.22-.13.39-.26.6-.39,1.57-1.19-.38-4.16-1.06-5.44-1.24-2.16-2.72-5.61-5.66-5.74-1.57-.04-2.97.51-4.42,1.07-1.44.55-2.89,1.15-4.21,2-2.97,1.95.22,4.97,2.21,6.2ZM354.12,496.78c-1.24-2.16-2.72-5.61-5.66-5.74-1.57-.04-2.97.51-4.42,1.07-1.44.55-2.89,1.15-4.21,2-2.97,1.95.22,4.97,2.21,6.2,3.19,2,8.89,4.3,12.54,2.3.22-.13.39-.26.6-.39,1.57-1.19-.38-4.16-1.06-5.44ZM354.12,496.78c-1.24-2.16-2.72-5.61-5.66-5.74-1.57-.04-2.97.51-4.42,1.07-1.44.55-2.89,1.15-4.21,2-2.97,1.95.22,4.97,2.21,6.2,3.19,2,8.89,4.3,12.54,2.3.22-.13.39-.26.6-.39,1.57-1.19-.38-4.16-1.06-5.44Z" fill="#f68e5f"/></g></svg>